# xmcd
#
# Track frame offsets:
#	150
#	10472
#	40887
#	72887
#	106479
#	136136
#	184126
#	206672
#	246642
#	272740
#	296958
#	325132
#
# Disc length: 4691 seconds
#
# Revision: 1
# Processed by: cddbd v1.5.2PL0 Copyright (c) Steve Scherf et al.
# Submitted via: audiograbber 1.83.01
#
DISCID=bf12510c
DTITLE=Freddie King - Going Down at Onkel Po's - D1
DYEAR=2015
DGENRE=Blues
TTITLE0=Introduction
TTITLE1=Big Leg Woman
TTITLE2=The Moon Is Rising
TTITLE3=Woman Across The River
TTITLE4=Boogie Funk
TTITLE5=56th and Wichita
TTITLE6=Feelin' Alright
TTITLE7=Mojo Boogie
TTITLE8=Have You Ever Loved a Woman
TTITLE9=Rock Me Baby
TTITLE10=Something You Got
TTITLE11=Messin' With The Kid
EXTD=
EXTT0=
EXTT1=
EXTT2=
EXTT3=
EXTT4=
EXTT5=
EXTT6=
EXTT7=
EXTT8=
EXTT9=
EXTT10=
EXTT11=
PLAYORDER=
